<?xml version="1.0" encoding="UTF-8" standalone="no"?>
<svg
   xmlns:dc="http://purl.org/dc/elements/1.1/"
   xmlns:cc="http://creativecommons.org/ns#"
   xmlns:rdf="http://www.w3.org/1999/02/22-rdf-syntax-ns#"
   xmlns:svg="http://www.w3.org/2000/svg"
   xmlns="http://www.w3.org/2000/svg"
   id="svg4469"
   version="1.1"
   viewBox="0 0 189.14146 225.72734"
   height="225.72734mm"
   width="189.14146mm">
  <defs
     id="defs4463" />
  <metadata
     id="metadata4466">
    <rdf:RDF>
      <cc:Work
         rdf:about="">
        <dc:format>image/svg+xml</dc:format>
        <dc:type
           rdf:resource="http://purl.org/dc/dcmitype/StillImage" />
        <dc:title></dc:title>
      </cc:Work>
    </rdf:RDF>
  </metadata>
  <g
     transform="translate(-9.7367899,-33.7018)"
     id="layer1">
    <g
       transform="matrix(1.7835759,0,0,-1.7835759,130.7904,37.75481)"
       id="g20">
      <path
         id="path22"
         style="fill:#ffa600;fill-opacity:1;fill-rule:nonzero;stroke:none"
         d="M 0,0 C 0.497,-0.115 0.966,-0.227 1.396,-0.331 0.202,0.172 -1.036,0.583 -2.313,0.894 -2.387,0.911 -2.485,0.935 -2.559,0.953 -2.646,0.973 -2.762,1 -2.849,1.021 -1.859,0.791 -0.909,0.448 0,0" />
    </g>
    <g
       transform="matrix(1.7835759,0,0,-1.7835759,125.06015,36.470284)"
       id="g24">
      <path
         id="path26"
         style="fill:#ffa600;fill-opacity:1;fill-rule:nonzero;stroke:none"
         d="M 0,0 C 0.565,-0.123 1.125,-0.246 1.666,-0.368 1.135,0 0.568,0.256 -0.033,0.391 -0.086,0.403 -0.158,0.419 -0.212,0.431 -0.263,0.442 -0.331,0.457 -0.382,0.468 -0.226,0.434 -0.099,0.275 0,0" />
    </g>
    <g
       transform="matrix(1.7835759,0,0,-1.7835759,119.05788,35.206629)"
       id="g28">
      <path
         id="path30"
         style="fill:#ffa600;fill-opacity:1;fill-rule:nonzero;stroke:none"
         d="m 0,0 c 0.548,-0.111 1.111,-0.228 1.679,-0.348 0.343,0.181 0.667,0.243 0.968,0.18 -0.064,0.013 -0.149,0.031 -0.213,0.044 -0.048,0.01 -0.111,0.022 -0.158,0.032 C 1.595,-0.031 0.682,0.046 0,0" />
    </g>
    <g
       transform="matrix(1.7835759,0,0,-1.7835759,113.83876,34.192127)"
       id="g32">
      <path
         id="path34"
         style="fill:#ffa600;fill-opacity:1;fill-rule:nonzero;stroke:none"
         d="M 0,0 C 0.397,-0.072 0.85,-0.158 1.356,-0.256 2.494,-0.249 3.627,-0.352 4.753,-0.571 4.074,-0.445 3.918,-0.417 3.015,-0.272 2.01,-0.129 1.004,-0.039 0,0" />
    </g>
    <g
       transform="matrix(1.7835759,0,0,-1.7835759,110.82025,33.7018)"
       id="g36">
      <path
         id="path38"
         style="fill:#ffa600;fill-opacity:1;fill-rule:nonzero;stroke:none"
         d="M 0,0 C 0.167,-0.02 0.394,-0.052 0.679,-0.099 1.309,-0.135 1.94,-0.187 2.572,-0.254 1.611,-0.144 1.238,-0.104 0.255,-0.018 0.17,-0.011 0.085,-0.005 0,0" />
    </g>
    <g
       transform="matrix(1.7835759,0,0,-1.7835759,135.33389,38.858319)"
       id="g40">
      <path
         id="path42"
         style="fill:#ffa600;fill-opacity:1;fill-rule:nonzero;stroke:none"
         d="M 0,0 C 0.334,-0.086 0.603,-0.16 0.809,-0.22 L -0.967,0.405 C -2.249,0.807 -2.594,0.915 -4.053,1.309 -2.666,0.949 -1.314,0.512 0,0" />
    </g>
    <g
       transform="matrix(1.7835759,0,0,-1.7835759,144.55479,45.19144)"
       id="g44">
      <path
         id="path46"
         style="fill:#ffa600;fill-opacity:1;fill-rule:nonzero;stroke:none"
         d="M 0,0 C 0.992,-0.241 1.895,-0.466 2.684,-0.671 0.84,0.627 -1.115,1.758 -3.17,2.703 -3.683,2.834 -4.195,2.962 -4.708,3.087 -3.046,2.24 -1.474,1.205 0,0" />
    </g>
    <g
       transform="matrix(1.7835759,0,0,-1.7835759,132.37994,42.364479)"
       id="g48">
      <path
         id="path50"
         style="fill:#ffa600;fill-opacity:1;fill-rule:nonzero;stroke:none"
         d="M 0,0 C 1.257,-0.282 2.474,-0.56 3.626,-0.827 2.593,0.274 1.477,1.201 0.284,1.937 -0.376,2.09 -1.074,2.249 -1.794,2.411 -1.132,1.796 -0.534,0.987 0,0" />
    </g>
    <g
       transform="matrix(1.7835759,0,0,-1.7835759,118.52315,39.353768)"
       id="g52">
      <path
         id="path54"
         style="fill:#ffa600;fill-opacity:1;fill-rule:nonzero;stroke:none"
         d="M 0,0 C 1.314,-0.277 2.639,-0.561 3.949,-0.845 3.941,0.026 3.887,0.714 3.786,1.206 3.035,1.369 2.276,1.531 1.522,1.69 1.045,1.323 0.536,0.754 0,0" />
    </g>
    <g
       transform="matrix(1.7835759,0,0,-1.7835759,105.09765,36.626154)"
       id="g56">
      <path
         id="path58"
         style="fill:#ffa600;fill-opacity:1;fill-rule:nonzero;stroke:none"
         d="M 0,0 C 0.008,-0.001 0.015,-0.003 0.023,-0.004 1.19,-0.231 2.418,-0.476 3.68,-0.733 4.746,-0.088 5.804,0.367 6.845,0.617 6.122,0.764 5.418,0.904 4.75,1.035 4.745,1.036 4.741,1.036 4.736,1.037 3.156,0.894 1.573,0.544 0,0" />
    </g>
    <g
       transform="matrix(1.7835759,0,0,-1.7835759,95.319359,34.842586)"
       id="g60">
      <path
         id="path62"
         style="fill:#ffa600;fill-opacity:1;fill-rule:nonzero;stroke:none"
         d="M 0,0 C 0.658,-0.106 1.451,-0.244 2.372,-0.412 4.373,0.051 6.4,0.317 8.436,0.374 7.908,0.47 7.454,0.549 7.077,0.61 4.693,0.614 2.328,0.406 0,0" />
    </g>
    <g
       transform="matrix(1.7835759,0,0,-1.7835759,152.6715,47.294603)"
       id="g68">
      <path
         id="path70"
         style="fill:#ffa600;fill-opacity:1;fill-rule:nonzero;stroke:none"
         d="M 0,0 C 0.49,-0.144 0.826,-0.255 1.014,-0.335 -0.994,0.932 -3.102,2.068 -5.302,3.06 L -6.084,3.405 C -6.194,3.45 -6.382,3.512 -6.651,3.591 -4.322,2.571 -2.101,1.368 0,0" />
    </g>
    <g
       transform="matrix(1.7835759,0,0,-1.7835759,145.31603,53.138175)"
       id="g72">
      <path
         id="path74"
         style="fill:#ffa600;fill-opacity:1;fill-rule:nonzero;stroke:none"
         d="M 0,0 C 1.748,-0.406 3.397,-0.796 4.909,-1.164 3.704,0.459 2.391,1.936 0.977,3.249 -0.15,3.521 -1.378,3.813 -2.68,4.115 -1.701,2.906 -0.806,1.528 0,0" />
    </g>
    <g
       transform="matrix(1.7835759,0,0,-1.7835759,125.17589,48.622676)"
       id="g76">
      <path
         id="path78"
         style="fill:#ffa600;fill-opacity:1;fill-rule:nonzero;stroke:none"
         d="M 0,0 C 1.987,-0.432 3.952,-0.866 5.855,-1.292 5.491,0.135 5.06,1.407 4.563,2.506 3.145,2.824 1.682,3.147 0.202,3.468 0.179,2.484 0.111,1.322 0,0" />
    </g>
    <g
       transform="matrix(1.7835759,0,0,-1.7835759,104.07173,44.179423)"
       id="g80">
      <path
         id="path82"
         style="fill:#ffa600;fill-opacity:1;fill-rule:nonzero;stroke:none"
         d="M 0,0 C 1.927,-0.392 3.908,-0.802 5.904,-1.223 6.497,-0.003 7.07,1.05 7.619,1.922 6.132,2.235 4.657,2.541 3.221,2.833 2.149,2.069 1.073,1.12 0,0" />
    </g>
    <g
       transform="matrix(1.7835759,0,0,-1.7835759,85.716954,40.60961)"
       id="g84">
      <path
         id="path86"
         style="fill:#ffa600;fill-opacity:1;fill-rule:nonzero;stroke:none"
         d="M 0,0 C 1.395,-0.254 2.985,-0.555 4.763,-0.9 4.766,-0.901 4.769,-0.901 4.771,-0.902 6.292,0.129 7.84,0.984 9.401,1.65 9.399,1.651 9.397,1.651 9.396,1.651 8.071,1.909 6.887,2.133 5.848,2.322 3.863,1.736 1.909,0.957 0,0" />
    </g>
    <g
       transform="matrix(1.7835759,0,0,-1.7835759,75.098956,38.885242)"
       id="g88">
      <path
         id="path90"
         style="fill:#ffa600;fill-opacity:1;fill-rule:nonzero;stroke:none"
         d="M 0,0 C 0.588,-0.069 1.387,-0.185 2.389,-0.347 4.587,0.56 6.845,1.285 9.146,1.816 8.4,1.937 7.805,2.024 7.367,2.076 4.855,1.575 2.393,0.879 0,0" />
    </g>
    <g
       transform="matrix(1.7835759,0,0,-1.7835759,73.102076,38.767687)"
       id="g92">
      <path
         id="path94"
         style="fill:#ffa600;fill-opacity:1;fill-rule:nonzero;stroke:none"
         d="M 0,0 C 2.484,0.874 5.041,1.564 7.653,2.059 7.65,2.058 7.648,2.058 7.646,2.058 6.434,1.78 4.808,1.453 3.608,1.128 l -3.659,-1.14 C -0.038,-0.007 -0.021,-0.003 0,0" />
    </g>
    <g
       transform="matrix(1.7835759,0,0,-1.7835759,169.05988,59.292737)"
       id="g96">
      <path
         id="path98"
         style="fill:#ffa600;fill-opacity:1;fill-rule:nonzero;stroke:none"
         d="M 0,0 C 0.128,-0.055 0.211,-0.1 0.249,-0.135 L -2.619,2.408 C -3.607,3.161 -4.899,4.201 -5.917,4.915 -5.95,4.937 -6.004,4.964 -6.078,4.996 -3.918,3.48 -1.889,1.809 0,0" />
    </g>
    <g
       transform="matrix(1.7835759,0,0,-1.7835759,161.26885,57.01279)"
       id="g100">
      <path
         id="path102"
         style="fill:#ffa600;fill-opacity:1;fill-rule:nonzero;stroke:none"
         d="M 0,0 C 1.178,-0.305 2.126,-0.564 2.851,-0.776 1.085,0.991 -0.815,2.62 -2.84,4.091 -3.379,4.249 -4.085,4.442 -4.963,4.669 -3.191,3.268 -1.533,1.705 0,0" />
    </g>
    <g
       transform="matrix(1.7835759,0,0,-1.7835759,161.47701,67.926703)"
       id="g104">
      <path
         id="path106"
         style="fill:#ffa600;fill-opacity:1;fill-rule:nonzero;stroke:none"
         d="M 0,0 C 1.95,-0.473 3.725,-0.916 5.276,-1.318 4.087,0.728 2.761,2.658 1.308,4.451 0.023,4.784 -1.447,5.151 -3.063,5.543 -1.929,3.83 -0.906,1.976 0,0" />
    </g>
    <g
       transform="matrix(1.7835759,0,0,-1.7835759,137.50593,62.360845)"
       id="g108">
      <path
         id="path110"
         style="fill:#ffa600;fill-opacity:1;fill-rule:nonzero;stroke:none"
         d="M 0,0 C 2.474,-0.554 4.869,-1.1 7.136,-1.626 6.568,0.27 5.906,2.038 5.154,3.661 3.276,4.097 1.291,4.549 -0.758,5.008 -0.438,3.484 -0.185,1.809 0,0" />
    </g>
    <g
       transform="matrix(1.7835759,0,0,-1.7835759,110.1853,56.424059)"
       id="g112">
      <path
         id="path114"
         style="fill:#ffa600;fill-opacity:1;fill-rule:nonzero;stroke:none"
         d="M 0,0 C 2.593,-0.546 5.206,-1.105 7.79,-1.667 8.009,0.052 8.187,1.632 8.323,3.056 6.182,3.521 4.017,3.985 1.868,4.437 1.261,3.114 0.636,1.63 0,0" />
    </g>
    <g
       transform="matrix(1.7835759,0,0,-1.7835759,83.738245,51.048877)"
       id="g116">
      <path
         id="path118"
         style="fill:#ffa600;fill-opacity:1;fill-rule:nonzero;stroke:none"
         d="m 0,0 0.022,-0.004 c 2.306,-0.449 4.73,-0.932 7.224,-1.439 1.043,1.546 2.102,2.94 3.169,4.168 C 8.349,3.145 6.34,3.545 4.429,3.917 4.423,3.918 4.417,3.919 4.411,3.92 2.906,2.78 1.432,1.469 0,0" />
    </g>
    <g
       transform="matrix(1.7835759,0,0,-1.7835759,64.441921,47.528811)"
       id="g120">
      <path
         id="path122"
         style="fill:#ffa600;fill-opacity:1;fill-rule:nonzero;stroke:none"
         d="M 0,0 C 1.3,-0.211 2.865,-0.482 4.684,-0.814 6.445,0.592 8.271,1.837 10.147,2.907 8.64,3.182 7.344,3.407 6.267,3.582 4.106,2.561 2.012,1.363 0,0" />
    </g>
    <g
       transform="matrix(1.7835759,0,0,-1.7835759,56.348756,46.578673)"
       id="g124">
      <path
         id="path126"
         style="fill:#ffa600;fill-opacity:1;fill-rule:nonzero;stroke:none"
         d="M 0,0 C 0.209,0.033 0.702,0.004 1.468,-0.086 3.645,1.252 5.915,2.425 8.261,3.419 7.626,3.494 7.218,3.518 7.044,3.491 4.61,2.502 2.255,1.334 0,0" />
    </g>
    <g
       transform="matrix(1.7835759,0,0,-1.7835759,177.46124,72.069553)"
       id="g128">
      <path
         id="path130"
         style="fill:#ffa600;fill-opacity:1;fill-rule:nonzero;stroke:none"
         d="M 0,0 C 0.963,-0.282 1.625,-0.501 1.993,-0.659 0.5,1.478 -1.151,3.502 -2.949,5.396 -3.254,5.526 -3.801,5.708 -4.6,5.941 -2.923,4.087 -1.386,2.101 0,0" />
    </g>
    <g
       transform="matrix(1.7835759,0,0,-1.7835759,153.30377,79.740377)"
       id="g132">
      <path
         id="path134"
         style="fill:#ffa600;fill-opacity:1;fill-rule:nonzero;stroke:none"
         d="M 0,0 C 2.702,-0.627 5.251,-1.231 7.589,-1.799 7.005,0.466 6.294,2.632 5.463,4.683 3.404,5.183 1.157,5.715 -1.224,6.268 -0.719,4.294 -0.309,2.2 0,0" />
    </g>
    <g
       transform="matrix(1.7835759,0,0,-1.7835759,122.11296,72.74714)"
       id="g136">
      <path
         id="path138"
         style="fill:#ffa600;fill-opacity:1;fill-rule:nonzero;stroke:none"
         d="M 0,0 C 3.08,-0.669 6.124,-1.341 9.074,-2.003 9.069,0.127 8.993,2.146 8.849,4.037 6.25,4.62 3.566,5.212 0.853,5.802 0.607,3.997 0.322,2.058 0,0" />
    </g>
    <g
       transform="matrix(1.7835759,0,0,-1.7835759,89.45818,65.87057)"
       id="g140">
      <path
         id="path142"
         style="fill:#ffa600;fill-opacity:1;fill-rule:nonzero;stroke:none"
         d="M 0,0 C 2.98,-0.606 6.044,-1.241 9.131,-1.892 9.785,0.096 10.435,1.957 11.074,3.677 8.353,4.25 5.654,4.81 3.027,5.344 1.996,3.705 0.983,1.918 0,0" />
    </g>
    <g
       transform="matrix(1.7835759,0,0,-1.7835759,61.014235,60.338643)"
       id="g144">
      <path
         id="path146"
         style="fill:#ffa600;fill-opacity:1;fill-rule:nonzero;stroke:none"
         d="M 0,0 C 2.156,-0.393 4.613,-0.857 7.359,-1.391 7.373,-1.394 7.386,-1.396 7.4,-1.399 8.692,0.458 10.044,2.177 11.442,3.743 11.43,3.746 11.418,3.748 11.407,3.75 8.986,4.221 6.821,4.63 4.921,4.976 3.206,3.47 1.56,1.807 0,0" />
    </g>
    <g
       transform="matrix(1.7835759,0,0,-1.7835759,44.562184,57.665025)"
       id="g148">
      <path
         id="path150"
         style="fill:#ffa600;fill-opacity:1;fill-rule:nonzero;stroke:none"
         d="M 0,0 C 0.911,-0.107 2.149,-0.287 3.702,-0.539 5.461,1.233 7.326,2.858 9.279,4.323 7.911,4.545 6.82,4.704 6.017,4.798 3.905,3.356 1.893,1.753 0,0" />
    </g>
    <g
       transform="matrix(1.7835759,0,0,-1.7835759,41.463575,57.481357)"
       id="g152">
      <path
         id="path154"
         style="fill:#ffa600;fill-opacity:1;fill-rule:nonzero;stroke:none"
         d="M 0,0 C 1.956,1.749 4.037,3.349 6.223,4.786 L 6.119,4.755 C 4.23,3.409 1.768,1.535 -0.018,0.056 L -0.128,-0.042 0,0" />
    </g>
    <g
       transform="matrix(1.7835759,0,0,-1.7835759,190.01779,89.259147)"
       id="g156">
      <path
         id="path158"
         style="fill:#ffa600;fill-opacity:1;fill-rule:nonzero;stroke:none"
         d="M 0,0 C 0.251,-0.107 0.389,-0.189 0.415,-0.249 L 0.354,-0.113 C -0.674,1.965 -2.132,4.694 -3.308,6.692 -3.341,6.743 -3.46,6.813 -3.669,6.902 -2.28,4.7 -1.053,2.393 0,0" />
    </g>
    <g
       transform="matrix(1.7835759,0,0,-1.7835759,177.95154,85.726775)"
       id="g160">
      <path
         id="path162"
         style="fill:#ffa600;fill-opacity:1;fill-rule:nonzero;stroke:none"
         d="M 0,0 C 1.829,-0.474 3.298,-0.876 4.42,-1.205 3.452,1.16 2.318,3.436 1.03,5.605 0.041,5.895 -1.254,6.249 -2.865,6.667 -1.767,4.549 -0.808,2.321 0,0" />
    </g>
    <g
       transform="matrix(1.7835759,0,0,-1.7835759,169.6729,99.763666)"
       id="g164">
      <path
         id="path166"
         style="fill:#ffa600;fill-opacity:1;fill-rule:nonzero;stroke:none"
         d="M 0,0 C 2.6,-0.631 4.966,-1.222 7.036,-1.759 6.641,0.774 6.082,3.239 5.371,5.617 3.467,6.111 1.289,6.654 -1.103,7.235 -0.603,4.91 -0.232,2.492 0,0" />
    </g>
    <g
       transform="matrix(1.7835759,0,0,-1.7835759,137.57478,92.309758)"
       id="g168">
      <path
         id="path170"
         style="fill:#ffa600;fill-opacity:1;fill-rule:nonzero;stroke:none"
         d="M 0,0 C 3.311,-0.742 6.517,-1.473 9.551,-2.177 9.513,0.269 9.369,2.632 9.124,4.897 6.332,5.546 3.383,6.218 0.336,6.901 0.295,4.701 0.183,2.396 0,0" />
    </g>
    <g
       transform="matrix(1.7835759,0,0,-1.7835759,65.591609,77.165068)"
       id="g172">
      <path
         id="path174"
         style="fill:#ffa600;fill-opacity:1;fill-rule:nonzero;stroke:none"
         d="m 0,0 c 0.003,0 0.005,-0.001 0.008,-0.001 3.094,-0.603 6.347,-1.251 9.694,-1.932 0.892,2.244 1.824,4.374 2.787,6.377 -3.078,0.626 -6.072,1.223 -8.918,1.777 -0.003,0 -0.005,0 -0.008,0.001 C 2.308,4.278 1.116,2.199 0,0" />
    </g>
    <g
       transform="matrix(1.7835759,0,0,-1.7835759,39.753304,72.450179)"
       id="g176">
      <path
         id="path178"
         style="fill:#ffa600;fill-opacity:1;fill-rule:nonzero;stroke:none"
         d="M 0,0 C 1.741,-0.283 3.835,-0.646 6.27,-1.09 7.576,1.073 8.988,3.11 10.49,5.007 8.25,5.416 6.323,5.75 4.722,6.01 3.031,4.146 1.451,2.138 0,0" />
    </g>
    <g
       transform="matrix(1.7835759,0,0,-1.7835759,28.889712,71.171731)"
       id="g180">
      <path
         id="path182"
         style="fill:#ffa600;fill-opacity:1;fill-rule:nonzero;stroke:none"
         d="M 0,0 C 0.282,0.043 0.943,0.004 1.971,-0.117 3.517,2.007 5.207,3.999 7.022,5.846 6.077,5.957 5.468,5.993 5.209,5.953 3.335,4.11 1.592,2.122 0,0" />
    </g>
    <g
       transform="matrix(1.7835759,0,0,-1.7835759,191.03836,105.30257)"
       id="g184">
      <path
         id="path186"
         style="fill:#ffa600;fill-opacity:1;fill-rule:nonzero;stroke:none"
         d="M 0,0 C 1.29,-0.378 2.174,-0.671 2.665,-0.881 2.093,1.703 1.332,4.227 0.391,6.672 -0.061,6.866 -0.874,7.136 -2.06,7.483 -1.2,5.064 -0.509,2.564 0,0" />
    </g>
    <g
       transform="matrix(1.7835759,0,0,-1.7835759,42.727229,90.785709)"
       id="g188">
      <path
         id="path190"
         style="fill:#ffa600;fill-opacity:1;fill-rule:nonzero;stroke:none"
         d="M 0,0 C 2.589,-0.472 5.538,-1.029 8.833,-1.669 8.856,-1.674 8.88,-1.679 8.905,-1.684 9.798,0.81 10.784,3.202 11.849,5.477 11.826,5.481 11.804,5.486 11.781,5.49 8.641,6.101 5.832,6.631 3.365,7.081 2.128,4.838 1.001,2.474 0,0" />
    </g>
    <g
       transform="matrix(1.7835759,0,0,-1.7835759,22.887618,87.559053)"
       id="g192">
      <path
         id="path194"
         style="fill:#ffa600;fill-opacity:1;fill-rule:nonzero;stroke:none"
         d="M 0,0 C 1.101,-0.129 2.594,-0.347 4.468,-0.651 5.549,1.808 6.781,4.154 8.147,6.375 6.362,6.665 4.939,6.872 3.891,6.995 2.438,4.788 1.135,2.452 0,0" />
    </g>
    <g
       transform="matrix(1.7835759,0,0,-1.7835759,19.147999,87.336073)"
       id="g196">
      <path
         id="path198"
         style="fill:#ffa600;fill-opacity:1;fill-rule:nonzero;stroke:none"
         d="M 0,0 C 1.16,2.45 2.496,4.784 3.99,6.99 3.902,6.977 3.849,6.957 3.831,6.929 L 2.065,4.142 C 1.387,2.882 0.449,1.219 -0.171,-0.07 -0.155,-0.038 -0.099,-0.014 0,0" />
    </g>
    <g
       transform="matrix(1.7835759,0,0,-1.7835759,197.98468,125.59504)"
       id="g200">
      <path
         id="path202"
         style="fill:#ffa600;fill-opacity:1;fill-rule:nonzero;stroke:none"
         d="M 0,0 C 0.334,-0.142 0.5,-0.249 0.501,-0.32 0.417,1.108 0.344,3.016 0.195,4.438 L -0.27,7.705 C -0.281,7.772 -0.439,7.872 -0.747,8.003 -0.299,5.382 -0.045,2.708 0,0" />
    </g>
    <g
       transform="matrix(1.7835759,0,0,-1.7835759,183.45299,121.33995)"
       id="g204">
      <path
         id="path206"
         style="fill:#ffa600;fill-opacity:1;fill-rule:nonzero;stroke:none"
         d="M 0,0 C 2.207,-0.572 3.979,-1.056 5.331,-1.453 5.319,1.244 5.111,3.903 4.718,6.505 3.429,6.883 1.74,7.345 -0.362,7.89 -0.071,5.316 0.052,2.68 0,0" />
    </g>
    <g
       transform="matrix(1.7835759,0,0,-1.7835759,24.646763,107.0817)"
       id="g208">
      <path
         id="path210"
         style="fill:#ffa600;fill-opacity:1;fill-rule:nonzero;stroke:none"
         d="M 0,0 C 1.917,-0.311 4.224,-0.712 6.905,-1.201 7.547,1.538 8.335,4.184 9.253,6.726 6.616,7.207 4.346,7.601 2.46,7.907 1.477,5.376 0.651,2.737 0,0" />
    </g>
    <g
       transform="matrix(1.7835759,0,0,-1.7835759,12.672902,105.66999)"
       id="g212">
      <path
         id="path214"
         style="fill:#ffa600;fill-opacity:1;fill-rule:nonzero;stroke:none"
         d="M 0,0 C 0.312,0.047 1.043,0.004 2.178,-0.13 2.835,2.605 3.686,5.242 4.71,7.767 3.594,7.898 2.875,7.941 2.568,7.895 1.522,5.371 0.66,2.735 0,0" />
    </g>
    <g
       transform="matrix(1.7835759,0,0,-1.7835759,191.13253,143.23745)"
       id="g216">
      <path
         id="path218"
         style="fill:#ffa600;fill-opacity:1;fill-rule:nonzero;stroke:none"
         d="M 0,0 C 1.415,-0.415 2.384,-0.737 2.921,-0.967 3.444,1.797 3.743,4.554 3.831,7.282 3.302,7.509 2.349,7.825 0.957,8.233 0.842,5.514 0.527,2.763 0,0" />
    </g>
    <g
       transform="matrix(1.7835759,0,0,-1.7835759,13.844365,125.35569)"
       id="g220">
      <path
         id="path222"
         style="fill:#ffa600;fill-opacity:1;fill-rule:nonzero;stroke:none"
         d="M 0,0 C 1.113,-0.131 2.625,-0.351 4.52,-0.659 4.667,2.069 5.002,4.826 5.534,7.594 3.608,7.907 2.073,8.13 0.94,8.264 0.414,5.495 0.104,2.734 0,0" />
    </g>
    <g
       transform="matrix(1.7835759,0,0,-1.7835759,10.05605,125.12739)"
       id="g224">
      <path
         id="path226"
         style="fill:#ffa600;fill-opacity:1;fill-rule:nonzero;stroke:none"
         d="M 0,0 C 0.084,2.735 0.382,5.497 0.906,8.266 0.793,8.25 0.732,8.222 0.725,8.182 0.523,6.816 0.207,5 0.065,3.626 L -0.179,-0.089 C -0.126,-0.06 -0.06,-0.009 0,0" />
    </g>
    <g
       transform="matrix(1.7835759,0,0,-1.7835759,190.74674,163.78602)"
       id="g228">
      <path
         id="path230"
         style="fill:#ffa600;fill-opacity:1;fill-rule:nonzero;stroke:none"
         d="M 0,0 C 0.161,-0.082 0.392,-0.193 0.498,-0.34 L 1.526,2.344 C 2.007,3.907 2.673,5.986 3.073,7.572 3.091,7.645 2.923,7.758 2.565,7.91 1.905,5.171 1.043,2.53 0,0" />
    </g>
    <g
       transform="matrix(1.7835759,0,0,-1.7835759,11.378929,144.09268)"
       id="g232">
      <path
         id="path234"
         style="fill:#ffa600;fill-opacity:1;fill-rule:nonzero;stroke:none"
         d="M 0,0 C 0.292,0.043 0.972,0.002 2.025,-0.122 1.611,2.507 1.387,5.189 1.363,7.904 0.257,8.035 -0.456,8.078 -0.763,8.032 -0.713,5.315 -0.455,2.631 0,0" />
    </g>
    <g
       transform="matrix(1.7835759,0,0,-1.7835759,16.372574,162.08255)"
       id="g236">
      <path
         id="path238"
         style="fill:#ffa600;fill-opacity:1;fill-rule:nonzero;stroke:none"
         d="M 0,0 C -0.95,2.46 -1.721,4.997 -2.299,7.594 -2.421,7.576 -2.477,7.545 -2.467,7.5 -1.855,5.197 -0.934,2.155 -0.151,-0.095 -0.169,-0.048 -0.119,-0.017 0,0" />
    </g>
    <g
       transform="matrix(1.7835759,0,0,-1.7835759,37.155345,175.64753)"
       id="g240">
      <path
         id="path242"
         style="fill:#00a650;fill-opacity:1;fill-rule:nonzero;stroke:none"
         d="m 0,0 c 0,0 0.796,-11.544 15.126,-10.748 14.331,0.797 14.53,-3.781 14.53,-3.781 0,0 -3.782,11.743 11.544,12.539 15.325,0.796 14.927,9.155 14.927,9.155 0,0 4.379,-13.335 -7.563,-17.515 0,0 17.913,-9.354 24.68,7.961 0,0 0.797,-20.699 -19.107,-19.305 -19.903,1.392 -22.912,-10.865 -15.349,-18.229 7.563,-7.364 12.961,-7.049 12.961,-7.049 H 39.807 c 0,0 -12.539,4.18 -6.767,23.685 0,0 -0.896,3.782 -8.26,2.389 C 17.416,-22.292 -7.314,-26.023 0,0" />
    </g>
    <g
       transform="matrix(1.7835759,0,0,-1.7835759,184.08348,162.7148)"
       id="g244">
      <path
         id="path246"
         style="fill:#00a650;fill-opacity:1;fill-rule:nonzero;stroke:none"
         d="m 0,0 c 0,11.177 -9.061,20.237 -20.237,20.237 -11.177,0 -20.237,-9.06 -20.237,-20.237 0,-1.023 0.1,-2.021 0.247,-3.004 -0.719,2.211 -1.12,4.566 -1.12,7.017 0,12.525 10.154,22.679 22.68,22.679 12.525,0 22.679,-10.154 22.679,-22.679 0,-8.45 -4.63,-15.805 -11.482,-19.707 C -2.914,-11.983 0,-6.334 0,0" />
    </g>
    <g
       transform="matrix(1.7835759,0,0,-1.7835759,99.468148,80.960321)"
       id="g248">
      <path
         id="path250"
         style="fill:#00a650;fill-opacity:1;fill-rule:nonzero;stroke:none"
         d="m 0,0 c 14.227,0 26.102,-10.023 28.979,-23.391 -1.474,-0.305 -2.769,-0.866 -3.877,-1.698 -3.75,9.666 -13.116,16.53 -24.107,16.53 -14.29,0 -25.874,-11.584 -25.874,-25.874 0,-1.309 0.128,-2.584 0.316,-3.841 1.16,-7.777 5.771,-14.426 12.226,-18.328 -8.92,4.102 -15.457,12.492 -16.957,22.543 -0.215,1.441 -0.362,2.903 -0.362,4.403 C -29.656,-13.277 -16.379,0 0,0" />
    </g>
    <g
       transform="matrix(1.7835759,0,0,-1.7835759,47.905667,125.95569)"
       id="g252">
      <path
         id="path254"
         style="fill:#00a650;fill-opacity:1;fill-rule:nonzero;stroke:none"
         d="M 0,0 C 1.259,0 2.481,-0.15 3.663,-0.408 3.448,-1.834 3.279,-3.264 3.14,-4.695 c -0.35,0.021 -0.694,0.068 -1.05,0.068 -9.454,0 -17.117,-7.664 -17.117,-17.118 0,-0.865 0.085,-1.71 0.209,-2.541 0.107,-0.713 0.266,-1.408 0.458,-2.089 -1.286,1.996 -2.182,4.267 -2.548,6.717 -0.124,0.831 -0.209,1.675 -0.209,2.541 C -17.117,-7.664 -9.454,0 0,0" />
    </g>
  </g>
</svg>
